<svg width="184" height="97" viewBox="0 0 184 97" fill="none" xmlns="http://www.w3.org/2000/svg">
<path d="M49.6319 56.9459C56.8219 54.8709 66.024 44.2639 71.355 34.1529C76.0385 40.7195 81.824 46.4251 88.4549 51.0169C101.268 59.7859 120.129 56.6739 115.53 54.2009C95.8969 43.6439 80.4999 18.0179 72.6299 14.5869C69.2939 12.8499 66.43 15.8399 66.43 15.8399C57.679 23.5439 44.4249 58.4499 49.6319 56.9459Z" fill="#AE162A"/>
<path d="M133.624 0.292961C126.434 2.36796 117.232 12.975 111.9 23.085C107.216 16.5185 101.431 10.8128 94.8 6.22094C81.987 -2.54806 63.125 0.563956 67.725 3.03796C87.358 13.595 102.754 39.22 110.625 42.652C113.961 44.389 116.825 41.399 116.825 41.399C125.577 33.693 138.835 -1.21404 133.624 0.292961Z" fill="#AE162A"/>
<path d="M17.1719 72.9629V90.8189L2.81195 72.9629H0.00195312V96.9059H3.42395V79.0599L17.7859 96.9059H20.5959V72.9629H17.1719Z" fill="#010101"/>
<path d="M45.222 72.9629H41.831L30.995 96.9059H34.51L37.144 90.9229L38.344 88.1859L43.508 76.4579L48.672 88.1859L49.872 90.9229L52.506 96.9059H56.094L45.222 72.9629Z" fill="#010101"/>
<path d="M81.3899 86.7449C80.6395 85.8866 79.6931 85.2222 78.631 84.8079C77.2453 84.2861 75.8256 83.8591 74.382 83.5299C73.2875 83.2984 72.2074 83.0039 71.147 82.6479C70.4079 82.4024 69.73 82.0014 69.1589 81.4719C68.8934 81.2241 68.6845 80.9218 68.5464 80.5858C68.4083 80.2498 68.3444 79.8879 68.359 79.5249C68.3546 78.9958 68.482 78.474 68.73 78.0066C68.9779 77.5392 69.3384 77.141 69.7789 76.8479C71.0597 76.0667 72.5512 75.7016 74.048 75.8029C75.1575 75.8092 76.2606 75.9732 77.324 76.2899C78.4332 76.6139 79.4915 77.0919 80.4679 77.7099L81.575 75.0419C80.5265 74.327 79.3589 73.8052 78.127 73.5009C76.7971 73.1452 75.4265 72.9644 74.0499 72.9629C72.3423 72.9111 70.6428 73.2177 69.0609 73.8629C67.8509 74.361 66.8116 75.1996 66.069 76.2769C65.4118 77.2794 65.0691 78.4553 65.085 79.6539C65.0171 80.9426 65.4289 82.2109 66.241 83.2139C66.9902 84.0827 67.9409 84.7547 69.01 85.1709C70.402 85.6916 71.8284 86.1153 73.2789 86.4389C74.6789 86.7739 75.7739 87.0779 76.5449 87.3389C77.2634 87.5866 77.9229 87.9801 78.4819 88.4949C78.7423 88.7479 78.9464 89.053 79.0809 89.3902C79.2155 89.7274 79.2775 90.0892 79.2629 90.4519C79.2706 90.9758 79.1431 91.4928 78.8926 91.953C78.6421 92.4132 78.2772 92.801 77.833 93.0789C76.5103 93.8259 74.9973 94.168 73.4819 94.0629C72.0156 94.0678 70.5601 93.8139 69.182 93.3129C67.9222 92.8914 66.7574 92.2265 65.7539 91.3559L64.517 93.9719C65.6413 94.9426 66.9581 95.6647 68.381 96.0909C70.025 96.6402 71.7476 96.9179 73.481 96.9129C75.1935 96.962 76.8981 96.6618 78.491 96.0309C79.7229 95.5427 80.7841 94.7032 81.543 93.6169C82.2054 92.6198 82.5537 91.447 82.543 90.2499C82.6096 88.9786 82.1982 87.7284 81.3899 86.7449Z" fill="#010101"/>
<path d="M125.16 72.9629L118.554 92.5299L111.959 72.9629H108.807L102.077 92.4269L95.607 72.9629H92.081L100.086 96.9059H103.746L110.279 77.7849L116.812 96.9059H120.412L128.417 72.9629H125.16Z" fill="#010101"/>
<path d="M139.418 72.9629V96.9059H142.84V72.9629H139.418Z" fill="#010101"/>
<path d="M159.327 93.9409L174.311 75.2969V72.9639H154.98V75.9399H169.798L154.742 94.5839V96.9069H174.309V93.9409H159.327Z" fill="#010101"/>
<path d="M178.248 66.903H177.202V66.403H179.88V66.903H178.834V69.5629H178.248V66.903Z" fill="#010101"/>
<path d="M183.221 69.5629V67.4709L182.184 69.2019H181.922L180.885 67.5019V69.5669H180.326V66.4109H180.809L182.062 68.5029L183.293 66.4109H183.775V69.5669L183.221 69.5629Z" fill="#010101"/>
</svg>
